<svg id="visual" viewBox="0 0 960 150" width="960" height="150" xmlns="http://www.w3.org/2000/svg" xmlns:xlink="http://www.w3.org/1999/xlink" version="1.1"><rect x="0" y="0" width="960" height="150" fill="#140021"></rect><path d="M0 89L60 89L60 114L120 114L120 114L180 114L180 76L240 76L240 117L300 117L300 85L360 85L360 108L420 108L420 113L480 113L480 72L540 72L540 80L600 80L600 71L660 71L660 113L720 113L720 96L780 96L780 66L840 66L840 90L900 90L900 115L960 115L960 81L960 151L960 151L900 151L900 151L840 151L840 151L780 151L780 151L720 151L720 151L660 151L660 151L600 151L600 151L540 151L540 151L480 151L480 151L420 151L420 151L360 151L360 151L300 151L300 151L240 151L240 151L180 151L180 151L120 151L120 151L60 151L60 151L0 151Z" fill="#9900ff"></path><path d="M0 114L60 114L60 121L120 121L120 84L180 84L180 102L240 102L240 109L300 109L300 96L360 96L360 105L420 105L420 99L480 99L480 115L540 115L540 83L600 83L600 90L660 90L660 124L720 124L720 115L780 115L780 99L840 99L840 119L900 119L900 82L960 82L960 96L960 151L960 151L900 151L900 151L840 151L840 151L780 151L780 151L720 151L720 151L660 151L660 151L600 151L600 151L540 151L540 151L480 151L480 151L420 151L420 151L360 151L360 151L300 151L300 151L240 151L240 151L180 151L180 151L120 151L120 151L60 151L60 151L0 151Z" fill="#8800e2"></path><path d="M0 123L60 123L60 132L120 132L120 111L180 111L180 119L240 119L240 129L300 129L300 124L360 124L360 113L420 113L420 120L480 120L480 98L540 98L540 126L600 126L600 124L660 124L660 102L720 102L720 99L780 99L780 105L840 105L840 115L900 115L900 131L960 131L960 112L960 151L960 151L900 151L900 151L840 151L840 151L780 151L780 151L720 151L720 151L660 151L660 151L600 151L600 151L540 151L540 151L480 151L480 151L420 151L420 151L360 151L360 151L300 151L300 151L240 151L240 151L180 151L180 151L120 151L120 151L60 151L60 151L0 151Z" fill="#7700c6"></path><path d="M0 134L60 134L60 117L120 117L120 114L180 114L180 138L240 138L240 113L300 113L300 120L360 120L360 120L420 120L420 114L480 114L480 130L540 130L540 112L600 112L600 116L660 116L660 125L720 125L720 112L780 112L780 130L840 130L840 136L900 136L900 110L960 110L960 118L960 151L960 151L900 151L900 151L840 151L840 151L780 151L780 151L720 151L720 151L660 151L660 151L600 151L600 151L540 151L540 151L480 151L480 151L420 151L420 151L360 151L360 151L300 151L300 151L240 151L240 151L180 151L180 151L120 151L120 151L60 151L60 151L0 151Z" fill="#6600ab"></path><path d="M0 124L60 124L60 145L120 145L120 134L180 134L180 137L240 137L240 141L300 141L300 141L360 141L360 145L420 145L420 130L480 130L480 129L540 129L540 122L600 122L600 143L660 143L660 141L720 141L720 145L780 145L780 129L840 129L840 127L900 127L900 134L960 134L960 137L960 151L960 151L900 151L900 151L840 151L840 151L780 151L780 151L720 151L720 151L660 151L660 151L600 151L600 151L540 151L540 151L480 151L480 151L420 151L420 151L360 151L360 151L300 151L300 151L240 151L240 151L180 151L180 151L120 151L120 151L60 151L60 151L0 151Z" fill="#560090"></path></svg>