<svg id="visual" viewBox="0 0 960 150" width="960" height="150" xmlns="http://www.w3.org/2000/svg" xmlns:xlink="http://www.w3.org/1999/xlink" version="1.1"><rect x="0" y="0" width="960" height="150" fill="#140021"></rect><path d="M0 39L60 39L60 56L120 56L120 58L180 58L180 71L240 71L240 38L300 38L300 63L360 63L360 57L420 57L420 38L480 38L480 46L540 46L540 77L600 77L600 42L660 42L660 35L720 35L720 34L780 34L780 45L840 45L840 30L900 30L900 80L960 80L960 69L960 0L960 0L900 0L900 0L840 0L840 0L780 0L780 0L720 0L720 0L660 0L660 0L600 0L600 0L540 0L540 0L480 0L480 0L420 0L420 0L360 0L360 0L300 0L300 0L240 0L240 0L180 0L180 0L120 0L120 0L60 0L60 0L0 0Z" fill="#9900ff"></path><path d="M0 51L60 51L60 43L120 43L120 37L180 37L180 33L240 33L240 68L300 68L300 33L360 33L360 36L420 36L420 38L480 38L480 67L540 67L540 40L600 40L600 26L660 26L660 23L720 23L720 36L780 36L780 67L840 67L840 40L900 40L900 39L960 39L960 37L960 0L960 0L900 0L900 0L840 0L840 0L780 0L780 0L720 0L720 0L660 0L660 0L600 0L600 0L540 0L540 0L480 0L480 0L420 0L420 0L360 0L360 0L300 0L300 0L240 0L240 0L180 0L180 0L120 0L120 0L60 0L60 0L0 0Z" fill="#8800e2"></path><path d="M0 20L60 20L60 42L120 42L120 50L180 50L180 40L240 40L240 44L300 44L300 25L360 25L360 28L420 28L420 42L480 42L480 47L540 47L540 23L600 23L600 47L660 47L660 45L720 45L720 18L780 18L780 25L840 25L840 53L900 53L900 19L960 19L960 53L960 0L960 0L900 0L900 0L840 0L840 0L780 0L780 0L720 0L720 0L660 0L660 0L600 0L600 0L540 0L540 0L480 0L480 0L420 0L420 0L360 0L360 0L300 0L300 0L240 0L240 0L180 0L180 0L120 0L120 0L60 0L60 0L0 0Z" fill="#7700c6"></path><path d="M0 32L60 32L60 29L120 29L120 22L180 22L180 10L240 10L240 39L300 39L300 10L360 10L360 10L420 10L420 21L480 21L480 40L540 40L540 15L600 15L600 16L660 16L660 17L720 17L720 18L780 18L780 14L840 14L840 29L900 29L900 23L960 23L960 23L960 0L960 0L900 0L900 0L840 0L840 0L780 0L780 0L720 0L720 0L660 0L660 0L600 0L600 0L540 0L540 0L480 0L480 0L420 0L420 0L360 0L360 0L300 0L300 0L240 0L240 0L180 0L180 0L120 0L120 0L60 0L60 0L0 0Z" fill="#6600ab"></path><path d="M0 25L60 25L60 18L120 18L120 17L180 17L180 4L240 4L240 17L300 17L300 14L360 14L360 8L420 8L420 20L480 20L480 22L540 22L540 14L600 14L600 4L660 4L660 16L720 16L720 20L780 20L780 10L840 10L840 8L900 8L900 8L960 8L960 22L960 0L960 0L900 0L900 0L840 0L840 0L780 0L780 0L720 0L720 0L660 0L660 0L600 0L600 0L540 0L540 0L480 0L480 0L420 0L420 0L360 0L360 0L300 0L300 0L240 0L240 0L180 0L180 0L120 0L120 0L60 0L60 0L0 0Z" fill="#560090"></path></svg>