<svg id="visual" viewBox="0 0 960 150" width="960" height="150" xmlns="http://www.w3.org/2000/svg" xmlns:xlink="http://www.w3.org/1999/xlink" version="1.1"><rect x="0" y="0" width="960" height="150" fill="#d494ff"></rect><path d="M0 35L60 35L60 37L120 37L120 72L180 72L180 30L240 30L240 53L300 53L300 79L360 79L360 45L420 45L420 77L480 77L480 73L540 73L540 43L600 43L600 41L660 41L660 47L720 47L720 59L780 59L780 36L840 36L840 62L900 62L900 32L960 32L960 75L960 0L960 0L900 0L900 0L840 0L840 0L780 0L780 0L720 0L720 0L660 0L660 0L600 0L600 0L540 0L540 0L480 0L480 0L420 0L420 0L360 0L360 0L300 0L300 0L240 0L240 0L180 0L180 0L120 0L120 0L60 0L60 0L0 0Z" fill="#9900ff"></path><path d="M0 47L60 47L60 31L120 31L120 42L180 42L180 45L240 45L240 54L300 54L300 29L360 29L360 54L420 54L420 40L480 40L480 63L540 63L540 64L600 64L600 36L660 36L660 40L720 40L720 27L780 27L780 26L840 26L840 34L900 34L900 60L960 60L960 27L960 0L960 0L900 0L900 0L840 0L840 0L780 0L780 0L720 0L720 0L660 0L660 0L600 0L600 0L540 0L540 0L480 0L480 0L420 0L420 0L360 0L360 0L300 0L300 0L240 0L240 0L180 0L180 0L120 0L120 0L60 0L60 0L0 0Z" fill="#8800e2"></path><path d="M0 30L60 30L60 17L120 17L120 28L180 28L180 22L240 22L240 49L300 49L300 53L360 53L360 37L420 37L420 41L480 41L480 17L540 17L540 42L600 42L600 36L660 36L660 48L720 48L720 43L780 43L780 28L840 28L840 34L900 34L900 51L960 51L960 42L960 0L960 0L900 0L900 0L840 0L840 0L780 0L780 0L720 0L720 0L660 0L660 0L600 0L600 0L540 0L540 0L480 0L480 0L420 0L420 0L360 0L360 0L300 0L300 0L240 0L240 0L180 0L180 0L120 0L120 0L60 0L60 0L0 0Z" fill="#7700c6"></path><path d="M0 19L60 19L60 17L120 17L120 12L180 12L180 21L240 21L240 40L300 40L300 38L360 38L360 35L420 35L420 38L480 38L480 15L540 15L540 30L600 30L600 35L660 35L660 14L720 14L720 23L780 23L780 11L840 11L840 27L900 27L900 39L960 39L960 25L960 0L960 0L900 0L900 0L840 0L840 0L780 0L780 0L720 0L720 0L660 0L660 0L600 0L600 0L540 0L540 0L480 0L480 0L420 0L420 0L360 0L360 0L300 0L300 0L240 0L240 0L180 0L180 0L120 0L120 0L60 0L60 0L0 0Z" fill="#6600ab"></path><path d="M0 14L60 14L60 5L120 5L120 17L180 17L180 9L240 9L240 15L300 15L300 15L360 15L360 17L420 17L420 20L480 20L480 4L540 4L540 3L600 3L600 22L660 22L660 12L720 12L720 15L780 15L780 15L840 15L840 21L900 21L900 22L960 22L960 3L960 0L960 0L900 0L900 0L840 0L840 0L780 0L780 0L720 0L720 0L660 0L660 0L600 0L600 0L540 0L540 0L480 0L480 0L420 0L420 0L360 0L360 0L300 0L300 0L240 0L240 0L180 0L180 0L120 0L120 0L60 0L60 0L0 0Z" fill="#560090"></path></svg>